<?xml version="1.0" encoding="utf-8"?>
<!-- Generator: Adobe Illustrator 16.0.0, SVG Export Plug-In . SVG Version: 6.00 Build 0)  -->
<!DOCTYPE svg PUBLIC "-//W3C//DTD SVG 1.1//EN" "http://www.w3.org/Graphics/SVG/1.1/DTD/svg11.dtd">
<svg version="1.1" id="Layer_1" xmlns="http://www.w3.org/2000/svg" xmlns:xlink="http://www.w3.org/1999/xlink" x="0px" y="0px"
	 width="512px" height="512px" viewBox="0 0 512 512" enable-background="new 0 0 512 512" xml:space="preserve">
<g>
	<g id="XMLID_1_">
		<g>
			<path fill="#A5A5A5" d="M243.04,220.24c1.15-0.92,1.99-1.72,0.65-3.21c-6.97-7.83-11.6-16.9-13.18-27.26
				c-0.68-4.44-0.3-9.07-0.14-13.61c0.12-3.66,0.63-7.3,0.99-11.28c-4.81,1.79-9.3,3.57-13.86,5.13
				c-12.15,4.18-24.32,8.32-36.53,12.33c-1.88,0.62-4,0.6-6,0.63c-0.79,0.01-1.59-0.64-2.38-0.99c0.56-0.64,0.99-1.58,1.7-1.88
				c5.77-2.46,11.58-4.83,17.41-7.17c7.37-2.96,14.66-6.17,22.18-8.69c6.07-2.04,12.43-3.21,18.66-4.76
				c1.46-0.36,2.92-0.71,4.38-1.04c2.87-0.65,4.68-1.78,4.39-5.39c-0.17-2.06,0.95-4.38,1.95-6.34c1.72-3.4,5.53-3.45,7.73-0.32
				c0.29,0.41,0.67,0.75,1.07,1.2c14-6.34,28.709-10.42,43.54-13.99c5.91-1.42,11.71-3.84,17.98-3.27c1.13,0.11,2.22,0.74,3.32,1.12
				c-0.75,1-1.29,2.34-2.28,2.95c-8.15,5-16.41,9.79-24.55,14.79c-3.721,2.28-7.23,4.88-10.87,7.29c-4.05,2.68-8.4,2.67-13.04,1.81
				c-3.62-0.67-7.391-0.63-11.1-0.82c-0.54-0.03-1.11,0.43-2.01,0.8c2.1,1.32,3.7,2.6,5.521,3.43c2.43,1.12,2.68,3.34,3.01,5.42
				c0.82,5.05,1.75,10.13,1.97,15.22c0.16,3.63-0.439,7.39-1.26,10.96c-0.82,3.54-2.55,6.87-3.44,10.4
				c-0.369,1.48,0.41,3.24,0.69,5.01c4-1.43,7.229-2.75,10.56-3.74c6.24-1.87,12.521-2.38,18.79,0.03
				c5.521,2.13,11.21,3.89,16.561,6.37c8.899,4.11,13.22,11.66,14.56,21.13c0.26,1.82,0.561,3.65,1.09,5.4
				c0.181,0.6,1.061,1.26,1.721,1.4c3.84,0.78,7.699,1.54,11.58,2.07c6.989,0.94,14,1.74,21.01,2.53c3.85,0.43,7.72,0.69,11.58,1.09
				c6.01,0.63,12.05,1.16,18.029,2.05c2.78,0.41,4.5-1.04,6.28-2.52c7.97-6.64,16.7-12.14,25.891-16.84
				c4.59-2.35,9.579-3.9,14.39-5.79c1.43-0.56,2.68-0.89,2.689-3.03c0.021-3.1,2.2-5.36,4.65-6.77c1.08-0.63,3.3-0.03,4.61,0.71
				c1.16,0.66,1.89,1.02,3.14,0.41c14.311-6.96,28.61-13.93,42.99-20.75c1.74-0.83,3.859-1.06,5.82-1.17
				c1-0.06,2.05,0.75,3.079,1.17c-0.52,1.08-0.77,2.48-1.619,3.16c-2.73,2.19-5.641,4.17-8.561,6.12
				c-12.66,8.43-25.97,15.59-40.32,20.71c-1.89,0.67-1.779,2.18-2.09,3.57c-0.33,1.52,0.88,1.66,1.9,2.09
				c5.18,2.2,8.52,5.57,8.399,11.77c-0.079,4.27,0.83,8.56,0.891,12.85c0.09,6.09-1,12.38-5.23,16.66
				c-5.029,5.08-7.13,11.641-10.939,17.271c-3.09,4.58-9.061,4.689-11.61-0.141c-1.74-3.289-2.78-6.97-3.87-10.56
				c-0.59-1.94-1.51-3.13-3.479-3.82c-2.36-0.83-4.511-2.26-6.88-3.06c-3.131-1.05-6.341-2.271-9.591-2.49
				c-7.369-0.51-14.779-0.42-22.18-0.62c-11.89-0.33-23.77-0.68-35.66-1.02c-5.689-0.17-11.38-0.34-17.06-0.521
				c-5.09-0.16-10.19-0.17-15.26-0.54c-8.551-0.62-15.66,2.45-22.261,7.601c-4.199,3.279-8.819,6.029-13.42,9.13
				c2.11,5.49,4.24,11.04,6.141,16.01c1.81,0.28,3.21,0.12,4.08,0.72c1.75,1.21,2.88,0.75,4.5-0.35
				c10.25-6.93,21.449-12.07,32.89-16.66c6.03-2.42,12.06-4.89,18.24-6.84c2.51-0.8,5.449-0.54,8.149-0.29
				c2.471,0.23,3.09,2.32,1.28,4.05c-4.54,4.32-9.29,8.431-13.81,12.78c-4.65,4.47-9.091,9.15-13.681,13.68
				c-2.62,2.58-5.109,5.391-8.1,7.46c-2.49,1.73-5.68,1.4-8.78,1.17c-4.74-0.35-9.54-1.39-14.26,0.21
				c-0.51,0.171-0.97,0.48-1.94,0.98c2.521,1.479,4.63,2.7,6.721,3.96c2.84,1.71,4.58,3.98,4.56,7.57
				c-0.02,5.26,0.271,10.52,0.47,15.77c0.431,10.98-3.779,20.44-9.71,29.271c-2.479,3.699-5.26,7.21-8.09,10.64
				c-4.01,4.86-9.08,3.64-12.38-1.15c-4.26-6.18-7.22-13.1-9.05-20.33c-1.311-5.199-2.07-10.689-2-16.029
				c0.04-4.15,1.75-8.28,2.689-12.42c0.091-0.391,0.011-0.811,0.011-1.511c-3.16,1.74-6.101,3.45-9.12,5.021
				c-10.86,5.63-21.68,11.34-32.66,16.729c-3.09,1.521-6.62,2.221-10.03,2.931c-1.16,0.24-3.33-0.311-3.67-1.101
				c-0.72-1.63,0.44-2.989,2.03-4.08c12.63-8.55,25-17.479,37.86-25.649c4.15-2.641,9.49-3.42,14.32-4.94
				c2.12-0.67,4.33-1.069,6.97-1.71c-1.63-3.13-3.06-5.939-4.55-8.71c-2.68-4.99-5.45-9.939-8.08-14.96
				c-0.8-1.52-1.739-1.689-3.229-1.12c-6.78,2.62-13.53,5.34-20.41,7.67c-2.72,0.931-5.73,1.12-8.64,1.341
				c-1.61,0.109-2.81,0.439-4.02,1.609c-3.15,3.03-6.38,5.98-9.77,8.73c-3.06,2.489-7.54,1.87-10.69-0.71
				c-3.44-2.83-5.32-6.74-6.95-10.9c-2.17-5.52-4.86-10.84-7.46-16.18c-1.81-3.74-3.2-7.45-1.92-11.69
				c0.41-1.34,0.49-2.78,0.74-4.33c-0.29-0.08-0.58-0.229-0.87-0.24c-7.74-0.189-15.47-0.39-23.21-0.529
				c-11.23-0.2-22.46-0.32-33.69-0.54c-3.3-0.061-6.61-0.23-9.9-0.51c-4.5-0.381-8.17,1.29-11.47,4.18
				c-2.79,2.43-5.59,4.86-8.58,7.02c-2.36,1.71-2.76,4.33-3.79,6.67c-1.47,3.36-2.51,6.95-4.3,10.12
				c-1.33,2.34-3.72,3.851-6.79,3.261c-2.43-0.46-4.47-1.521-5.38-3.971c-1.43-3.819-2.49-7.8-4.25-11.46
				c-0.98-2.06-2.78-3.99-4.68-5.29c-2.88-1.95-3.97-4.58-4.39-7.739c-0.36-2.75-0.94-5.49-0.95-8.23c-0.01-2.65,0.57-5.3,0.95-8.41
				c-13.59,3.86-26.91,7.69-40.25,11.42c-3.44,0.96-6.96,1.641-10.44,2.45c-0.08,0.021-0.18,0.03-0.25,0
				c-1.43-0.61-2.85-1.22-4.27-1.83c0.83-1.26,1.38-2.95,2.54-3.74c5.46-3.72,10.96-7.43,16.69-10.729
				c8.79-5.05,17.64-10.05,26.74-14.53c6.12-3.01,12.65-5.23,19.09-7.52c2.45-0.87,3.29-2.25,3.51-4.65
				c0.34-3.82,3.55-6.92,6.64-6.01c1.94,0.57,3.49,2.51,5.53,4.08c5.67-2.47,12.01-5.23,18.36-7.98
				c9.45-4.09,18.89-8.17,28.34-12.25c2.3-0.99,4.55-2.17,6.93-2.92c1.97-0.62,4.09-0.88,6.16-1.03c0.7-0.05,2.01,0.64,2.08,1.13
				c0.11,0.71-0.46,1.87-1.1,2.27c-2.69,1.7-5.45,3.34-8.31,4.72c-12.22,5.89-24.46,11.76-36.76,17.48
				c-3.85,1.79-7.91,3.14-11.91,4.61c-3.98,1.46-4,1.41-3.52,5.96c6.64,0.98,11.34,5.71,16.69,9.21c5.34,3.48,10.78,5.86,17.42,5.37
				c8.79-0.64,17.62-0.74,26.43-1.11c7.45-0.31,14.9-0.69,22.35-1.01c8.56-0.36,17.14-0.51,25.68-1.1c4.32-0.3,8.34-1.75,12.14-4.21
				c5.33-3.43,11.1-6.16,16.66-9.24c0.87-0.48,1.63-1.17,2.42-1.8C236.12,225.83,239.57,223.02,243.04,220.24z"/>
		</g>
		<g>
		</g>
	</g>
</g>
</svg>
