<?xml version="1.0" encoding="utf-8"?>
<!-- Generator: Adobe Illustrator 16.0.0, SVG Export Plug-In . SVG Version: 6.00 Build 0)  -->
<!DOCTYPE svg PUBLIC "-//W3C//DTD SVG 1.1//EN" "http://www.w3.org/Graphics/SVG/1.1/DTD/svg11.dtd">
<svg version="1.1" id="Layer_1" xmlns="http://www.w3.org/2000/svg" xmlns:xlink="http://www.w3.org/1999/xlink" x="0px" y="0px"
	 width="512px" height="512px" viewBox="0 0 512 512" enable-background="new 0 0 512 512" xml:space="preserve">
<g>
	<g id="XMLID_1_">
		<g>
			<path fill="#A5A5A5" d="M452.6,159.06c-0.13,0.49-0.18,0.94-0.35,1.34c-7.61,17.11-15.21,34.22-22.86,51.31
				c-1.029,2.3-2.33,4.48-3.59,6.67c-1.95,3.4-3.96,6.76-5.95,10.13c-1.25,2.1-2.939,3.71-5.1,4.88c-2.45,1.34-4.84,2.79-7.26,4.19
				c0.24,1.18,0.439,2.2,0.689,3.42c0.521,0.2,1.15,0.6,1.811,0.64c2.85,0.19,5.67,0.7,8.59,0.33c2.189-0.28,4.49-0.2,6.68,0.14
				c1.771,0.28,3.32,1.28,4.33,3c1.9,3.2,3.94,6.31,5.93,9.45c0.25,0.4,0.561,0.78,0.891,1.22c0.8-0.14,1.55-0.24,2.3-0.39
				c3.67-0.75,6.87,0.54,8.92,3.6c0.86,1.279,1.7,2.58,2.57,3.85c1.92,2.811,1.93,5.75,0.649,8.79c-0.85,2.01-1.899,3.88-3.449,5.48
				c-2.931,3.02-5.631,6.27-8.721,9.12c-4.29,3.97-9.199,7.079-14.649,9.279c-1.811,0.73-3.66,1.391-5.521,1.99
				c-1.85,0.59-3.59,0.3-5.16-0.93c-0.649-0.521-1.409-0.91-2.319-1.49c-0.79,0.57-1.601,1.21-2.45,1.78
				c-3.36,2.29-7.1,2.79-11.04,2.35c-1.16-0.14-2.11-0.71-2.9-1.56c-0.569-0.61-1.21-1.2-1.649-1.9c-0.721-1.17-1.65-1.45-2.99-1.34
				c-5.66,0.47-11.33,0.82-17,1.229c-2.86,0.2-5.72,0.48-8.59,0.62c-1.12,0.061-1.771,0.55-2.38,1.42
				c-1.601,2.301-3.221,4.601-4.95,6.801c-0.811,1.02-1.84,1.899-2.87,2.699c-1.05,0.82-2.21,1.49-3.36,2.17
				c-0.63,0.381-1.33,0.66-2.17,0.811c2.41-4.5,5.36-8.62,8.09-13.11c-1.1-0.41-2.06-0.14-2.979-0.109
				c-1.68,0.06-3.35,0.3-5.03,0.34c-0.92,0.029-1.569,0.359-2.22,0.979c-2.38,2.26-4.24,2.41-6.87,0.49
				c-0.77-0.56-1.54-0.55-2.37-0.6c-0.53-0.03-1.39-0.11-1.51-0.4c-0.47-1.21-1.38-0.96-2.26-0.89
				c-1.74,0.149-3.521,0.159-5.11,1.529c-0.25,2.71-0.52,5.561-0.79,8.42c-0.27,2.931-0.59,5.86-0.79,8.79
				c-0.08,1.141-0.47,2.03-1.28,2.78c-1.13,1.04-2.229,2.11-3.38,3.13c-1.08,0.96-1.77,2.141-2.149,3.521
				c-0.2,0.75-0.4,1.489-0.59,2.239c-0.44,1.7-1.391,2.95-2.91,3.921c-9.721,6.159-19.41,12.359-29.07,18.609
				c-1.84,1.19-3.77,1.33-5.81,1.13c-3.221-0.33-6.33-0.01-8.96,2.011c-1.83,1.409-3.921,1.739-6.061,2.14
				c-2.87,0.52-5.67,0.41-8.54-0.21c-4.57-0.98-9.19-1.75-13.79-2.58c-0.44-0.08-1.04-0.04-1.37,0.2
				c-1.82,1.319-3.95,1.779-6.06,2.26c-0.83,0.2-1.42,0.5-1.72,1.32c-0.17,0.46-0.45,0.87-0.64,1.319
				c-1.44,3.341-3.72,5.91-6.94,7.61c-1.52,0.8-2.64,2-3.77,3.28c-6.08,6.89-12.15,13.8-18.39,20.54
				c-2.15,2.319-5.09,3.729-8.07,4.81c-1.78,0.65-3.19,1.601-4.34,3.11c-1.49,1.95-3.18,3.74-4.68,5.68
				c-0.76,0.98-1.55,1.53-2.82,1.41c-0.51-0.05-1.15,0.06-1.57,0.34c-1.9,1.24-1.94,2.01-0.28,3.58c0.66,0.63,1.39,1.19,2.02,1.84
				c1.23,1.271,1.43,2.71,0.52,4.22c-2.41,4.021-5.5,7.44-9.38,10.091c-0.62,0.42-1.58,0.319-2.38,0.479
				c-0.39,0.08-1.03,0.12-1.08,0.32c-0.12,0.39-0.01,0.92,0.18,1.31c0.45,0.9,1.01,1.74,1.61,2.75c-2.1,0.67-2.82,2.29-3.35,4.08
				c-0.24,0.8-0.51,1.63-0.98,2.3c-0.24,0.351-0.95,0.551-1.43,0.511c-0.25-0.03-0.53-0.69-0.64-1.11c-0.13-0.45-0.07-0.95-0.1-1.53
				c-0.64-0.029-1.17-0.06-1.33-0.069c-1.81,2.319-3.42,4.409-5.06,6.479c-0.53,0.66-1.21,0.59-1.89,0.17
				c-0.82-0.5-1.68-0.67-2.57-0.26c-0.65,1.42-1.23,2.84-1.95,4.189c-0.27,0.5-0.8,1.07-1.31,1.19c-1.16,0.271-1.79,1.021-2.39,1.9
				c-1.11,1.64-2.51,2.97-4.2,4.04c-1.71,1.08-3.29,2.38-4.99,3.479c-1.34,0.88-2.75,1.66-4.19,2.37c-2.57,1.26-5.15,2.51-7.78,3.63
				c-1.35,0.57-2.79,0.95-4.22,1.25c-1.51,0.32-3.06,0.38-4.57,0.64c-1.88,0.33-3.51,0.04-4.59-1.67
				c-0.7-1.119-1.26-2.31-1.92-3.449c-0.4-0.71-0.76-1.511-1.35-2.021c-1.86-1.6-2.34-3.58-1.89-5.88c0.4-2.03,1.19-3.88,2.87-5.44
				c-1.71-2.54-3.22-5.149-5.09-7.479c-2.32-2.91-2.8-5.86-1.19-9.18c0.55-1.141,1.09-2.28,1.64-3.41c0.4-0.83,0.75-1.65,0.28-2.66
				c-0.87,0.41-1.68,0.8-2.5,1.189c-0.4,2.29-1.44,4.23-2.78,6.08c-4.68,6.42-9.87,12.391-15.46,18.011
				C78.58,457.8,66.9,469.44,55.23,481.1c-0.48,0.48-1,0.931-1.63,1.511c-0.64-1.681-0.76-3.011,0.25-4.48
				c14.41-21.08,28.75-42.21,43.2-63.26c1.41-2.05,3.43-3.69,5.27-5.41c1.27-1.19,2.07-2.34,2.15-4.26
				c0.14-3.67,2.37-6.61,6.57-7.28c0.87-0.13,1.37-0.479,1.67-1.31c0.44-1.261,1.04-2.45,1.46-3.721
				c1.42-4.319,3.88-8.02,6.55-11.67c11.12-15.16,22.13-30.41,33.18-45.62c0.52-0.729,1.07-1.439,1.6-2.159
				c0.12,0.04,0.25,0.069,0.38,0.1c0,0.66,0.09,1.33-0.02,1.96c-0.3,1.73-0.6,3.47-1.06,5.15c-0.25,0.93-0.75,1.81-1.28,2.619
				c-11.69,18.091-23.41,36.16-35.12,54.24c-0.42,0.641-0.82,1.3-1.32,2.08c1.76,1.5,2.12,3.61,2.22,5.71
				c1.15,0.2,2.11,0.32,3.05,0.54c1.24,0.29,1.98,1.11,1.9,2.41c-0.08,1.35,0.82,1.8,1.79,2.27c1.72,0.86,3.53,0.48,5.33,0.421
				c2.09-0.08,4.18-0.16,6.26-0.021c1.64,0.12,3.22,0.62,3.64,2.58c0.21,1.01,0.99,1.3,1.83,1.49c1.28,0.29,2.58,0.54,4.11,0.859
				c0.38-0.369,0.93-0.899,1.46-1.439c5.16-5.17,10.31-10.33,15.47-15.5c0.2-0.2,0.44-0.37,0.59-0.601
				c1.06-1.67,3.39-1.729,4.35-3.76c0.82-1.71,2.42-3.05,3.67-4.56c1.26-1.51,2.45-3.08,3.79-4.51c1.61-1.75,3.33-3.391,5.04-5.051
				c0.79-0.779,1.67-1.47,2.44-2.149c0-0.29,0.05-0.44,0-0.561c-1.08-2.47-0.98-2.359,1.01-4.229c1.62-1.53,2.96-3.351,4.41-5.04
				c0.13-0.16,0.26-0.391,0.25-0.58c-0.17-2.39,1.56-3.59,3.07-4.93c0.15-0.141,0.25-0.33,0.43-0.591c-0.15-0.34-0.23-0.8-0.5-1.08
				c-1.28-1.369-1.04-3.1-1.13-4.739c-0.02-0.46,0.13-0.971,0.35-1.391c1.78-3.449,6.63-5.54,10.27-4.34
				c0.65,0.22,1.13,0.95,1.77,1.53c1.91,0.24,3.45-0.42,4.63-2.25c1.05-1.64,2.39-3.09,3.64-4.66c-0.02-0.06-0.01-0.24-0.09-0.32
				c-2.15-2.04-2.39-4.77-2.84-7.479c-0.45-2.69-1.08-5.351-1.69-8.01c-0.28-1.23-0.84-2.271-1.79-3.23
				c-1.1-1.11-1.43-2.76-1.12-4.32c0.49-2.439-0.25-4.55-1.39-6.609c-0.07-0.12-0.12-0.25-0.21-0.36
				c-2.03-2.649-1.87-5.17,0.48-7.47c-0.47-1.601-1.42-2.14-3-2.03c-4.69,0.33-9.38,0.65-14.08,0.771
				c-5.32,0.14-10.66,0.06-15.99,0.069c-0.56,0-1.13,0.021-1.68-0.029c-0.92-0.08-1.61,0.159-2.11,1.01
				c-0.7,1.189-1.65,1.82-3.15,1.34c-0.55-0.17-1.25-0.01-1.84,0.14c-1.54,0.4-3.02,0.61-4.39-0.5c-0.47-0.38-5.19,0.221-5.58,0.66
				c-0.42,0.46-0.76,0.99-1.16,1.53c-1.99-0.98-0.3-2.17-0.29-3.521c-0.91-0.77-1.97-1.659-3.01-2.56
				c-0.64-0.54-1.28-0.47-1.93-0.06c-1.24,0.76-2.51,1.22-4,0.739c-0.33-0.1-0.82,0.021-1.15,0.2c-2.01,1.07-4,1.04-6.05,0.101
				c-0.52-0.24-1.25-0.391-1.76-0.221c-5.65,1.86-11.29,3.76-16.9,5.75c-1.71,0.61-3.23,1.74-4.94,2.29
				c-2.62,0.83-5.26,0.8-7.6-0.979c-0.33-0.25-0.68-0.521-0.92-0.84c-1.51-2.03-3.02-4.051-4.46-6.12
				c-0.7-1.011-0.88-2.17-0.63-3.41c0.39-1.931,0.68-3.87,1.03-5.8c0.19-1.101,0.06-2.011-0.9-2.801c-1.08-0.89-1.97-2-3.03-2.92
				c-2.3-2.01-2.55-4.54-1.92-7.29c0.47-2.04,1.07-4.06,1.59-6.09c0.25-1.01,0.13-1.8-0.81-2.569c-0.6-0.5-0.97-1.54-1.03-2.37
				c-0.14-2.15-0.05-4.32-0.05-6.48c-1.3-0.83-2.41-1.54-3.72-2.38c-0.46,0.59-0.94,1.16-1.37,1.76
				c-13.01,17.86-26.02,35.73-39.03,53.59c-2.01,2.78-5.11,3.971-7.86,5.681c-0.11-0.101-0.23-0.19-0.34-0.29
				c0.21-0.45,0.38-0.94,0.65-1.36c11.33-17.479,22.67-34.96,34.02-52.43c0.46-0.69,1.03-1.33,1.63-1.91
				c3.2-3.05,6.45-6.04,9.62-9.13c0.66-0.65,1.14-1.55,1.51-2.42c0.38-0.9,0.51-1.88,1.46-2.45c0.24-0.15,0.47-0.61,0.43-0.87
				c-0.23-1.37,0.53-2.44,0.95-3.61c1.86-5.19,4.64-9.83,7.8-14.35c13.04-18.61,25.94-37.32,38.83-56.04
				c1.04-1.51,2.28-2.12,4.21-2.18c-0.2,0.61-0.31,1.12-0.52,1.58c-7.32,16.47-14.64,32.93-22.02,49.37
				c-1.03,2.3-2.32,4.48-3.57,6.67c-1.87,3.28-3.8,6.53-5.72,9.79c-1.24,2.1-2.94,3.7-5.1,4.87c-2.27,1.23-4.47,2.56-6.81,3.92
				c0.63,0.55,1.07,0.97,1.55,1.35c0.97,0.77,1.63,1.71,1.78,2.97c0.13,1.101,0.76,1.74,1.84,2.03c0.74,0.19,1.43,0.56,2.17,0.78
				c1.85,0.55,3.32,1.479,3.86,3.479c0.28,1.01,1.03,1.23,1.98,1.07c1.59-0.271,3.19-0.49,4.77-0.76c2.91-0.5,5.21,0.699,7.11,2.71
				c1.63,1.729,3.09,3.63,4.59,5.489c0.53,0.65,1.06,0.99,1.96,0.851c1.64-0.24,3.22,0.13,4.66,0.93c1,0.561,1.89,0.67,2.97,0.17
				c3.03-1.39,6.13-1.569,9.09,0.12c2.49,1.42,4.48,1.01,6.9-0.5c10.83-6.75,21.82-13.25,32.7-19.92c2.25-1.38,4.54-2.42,7.14-2.88
				c0.92-0.16,1.84-0.63,2.61-1.17c1.2-0.82,1.74-1.97,1.82-3.54c0.29-5.95,0.75-11.89,1.16-17.84c0.27-4.05,0.56-8.1,0.84-12.14
				c6.9-3.03,13.65-6.14,20.51-8.97c5.22-2.15,10.04-4.95,14.8-7.92c4-2.49,8.42-3.83,13.07-4.21c2.34-0.19,4.76,0.12,7.11,0.47
				c2.63,0.39,5.1,0.3,7.62-0.62c3.16-1.16,6.399-2.1,9.6-3.11c2.32-0.73,3.86,0.01,4.521,2.37c0.479,1.74,0.699,3.56,0.979,5.36
				c0.2,1.31,0.32,2.63,0.48,3.96c1.06,0.57,1.93,0.17,2.77-0.37c2.311-1.46,4.59-2.98,6.94-4.37c4.649-2.75,9.33-5.44,14.029-8.09
				c0.83-0.47,1.82-0.73,2.771-0.87c3.1-0.46,5.92-1.72,8.729-2.96c2.261-0.99,4.53-1.33,7.011-0.6c0.16,0.57,0.33,1.15,0.51,1.78
				c4.62,0.37,9.15,0.73,13.75,1.1c1.18-1.92,2.7-3.53,3.43-5.75c0.53-1.63,1.75-3.02,2.561-4.57c0.449-0.85,0.899-1.79,0.979-2.72
				c0.15-1.83,0.681-3.43,1.99-4.72c1-0.99,1.2-2.15,0.95-3.47c-0.11-0.61-0.2-1.24-0.25-1.87c-0.141-1.49,0.45-2.43,1.87-3.14
				c2.67-1.35,5.409-1.78,8.29-1.26c5.13-7.29,10.92-14.04,14.1-22.4c1.09-2.87,1.86-5.87,2.67-8.85c0.14-0.49-0.17-1.21-0.479-1.69
				c-1.521-2.36-3.061-4.7-4.69-6.99c-1.68-2.37-2.12-4.79-0.84-7.5c0.75-1.58,1.32-3.24,1.95-4.88
				c0.609-1.58,0.199-2.63-1.311-3.42c-0.56-0.29-1.13-0.55-1.88-0.92c-0.27,1.55-0.59,3.03-0.78,4.54c-0.25,2-1.029,3.77-2.18,5.39
				c-4.4,6.27-9.4,12.06-14.77,17.5c-11.79,11.93-23.69,23.74-35.551,35.6c-0.479,0.47-1,0.91-1.62,1.46
				c-0.609-1.88-0.51-3.29,0.57-4.87c14.08-20.54,28.07-41.15,42.15-61.7c1.13-1.65,2.729-2.99,4.14-4.44
				c0.88-0.9,1.79-1.79,2.75-2.6c0.99-0.83,1.34-1.7,1.25-3.07c-0.189-2.68,1.95-5.62,4.98-5.67c0.409-0.01,0.83-0.08,1.46-0.15
				c0.859-2.06,1.859-4.14,2.609-6.3c1.37-3.96,3.54-7.41,6.011-10.77c10.909-14.88,21.72-29.84,32.56-44.77
				c0.66-0.9,1.32-1.8,2.37-2.67c0.03,0.55,0.17,1.11,0.08,1.64c-0.59,3.61-1.57,6.98-3.66,10.15
				c-11.35,17.23-22.5,34.58-33.71,51.89c-0.42,0.64-0.82,1.3-1.18,1.88c0.75,1.06,1.399,2.05,2.119,2.98
				c0.98,1.28,2,2.51,3.521,3.25c0.67,0.33,1.31,0.83,1.79,1.4c0.95,1.11,2.13,1.54,3.52,1.56c2.04,0.03,4.07,0.03,6.11,0.1
				c0.9,0.02,1.84,0.08,2.7,0.32c0.54,0.16,1.29,0.62,1.399,1.08c0.32,1.32,1.21,1.77,2.341,2.07c1.229,0.33,1.89,1.33,2.17,2.39
				c0.66,2.49,2.54,2.68,4.569,2.72c0.7,0.01,1.4-0.08,2.101-0.13c3.24-0.24,5.319,1.31,6.42,4.04c0.67,1.66,1.05,3.48,1.34,5.26
				c0.22,1.43,0.52,2.75,1.59,3.78c0.78,0.74,0.78,1.56,0.4,2.49c-1.55,3.78-3.37,7.37-6.681,10c-2.85,2.27-5.619,4.65-8.409,7
				c-1.69,1.43-1.721,1.85-0.271,3.6c0.86,1.03,1.771,2,2.62,3.03c2.21,2.66,1.72,5.9-1.29,7.68c-2.15,1.28-4.45,2.31-6.66,3.49
				c-0.74,0.39-1.43,0.88-2.17,1.34c0.15,0.68,0.28,1.27,0.41,1.86c-1.83,1.2-3.6,2.31-5.33,3.51c-1.77,1.23-3.49,2.49-5.13,3.93
				c-1.98,1.73-4.4,2.99-6.71,4.29c-1.57,0.89-2.771,2-3.811,3.48c-1.619,2.28-3.619,4.29-5.229,6.57
				c-3.061,4.34-5.89,8.84-8.95,13.18c-1.76,2.52-3.76,4.88-5.689,7.28c-0.82,1.03-1.9,1.85-2.101,3.31
				c-0.06,0.39-0.54,0.91-0.93,1.04c-1.21,0.38-1.48,1.31-1.811,2.35c-0.92,2.94-1.84,5.88-2.909,8.77
				c-1.83,4.91-4.391,9.44-8.061,13.19c-2.729,2.8-5.78,5.3-8.81,7.78c-1.12,0.91-1.74,1.85-1.98,3.24
				c-0.53,3.04-1.189,6.06-2.56,8.86c-0.28,0.56-0.471,1.22-0.891,1.65c-1.34,1.38-1.34,2.9-0.96,4.66
				c0.54,2.46,0.761,4.99,1.23,7.47c0.189,1.03,0.02,1.73-0.851,2.351c-0.729,0.52-1.369,1.17-2.069,1.77
				c2.22,4.41,6.39,5.44,10.779,6.36c-0.31,0.84-0.569,1.39-0.72,1.97c-0.14,0.57-0.16,1.16-0.27,2.08
				c1.939-0.36,3.569-0.62,5.17-0.97c0.45-0.101,0.96-0.391,1.229-0.75c1.25-1.67,2.42-3.391,3.771-5.3c-1-0.17-1.66-0.28-2.62-0.44
				c1.38-1.68,2.61-3.18,3.86-4.68c2.67-3.2,2.68-3.16,6.779-3.62c4.73-0.53,9.46-1.11,14.181-1.75
				c0.71-0.101,1.529-0.45,1.989-0.97c1.591-1.79,4.811-0.79,5.23,1.609c0.18,1.04,0.37,2.07,0.59,3.271
				c2.63,0.939,5.35,1.77,8.21,2.14c1.19,0.16,1.76-0.54,2.32-1.42c2.229-3.49,4.46-6.98,6.76-10.42c0.77-1.15,1.67-2.25,2.67-3.22
				c2.91-2.84,5.89-5.6,8.8-8.34c-0.22-1.15-0.54-2.16-0.6-3.18c-0.17-2.82,1.06-4.72,3.78-5.53c1.149-0.34,1.76-0.9,2.13-1.99
				c1.77-5.23,4.689-9.8,7.85-14.31c13.38-19.15,26.65-38.38,39.9-57.62C449.35,159.84,450.58,159.06,452.6,159.06z M401.18,296.29
				c1.67,0.66,4.44-0.89,6.011-3.01c-3.7-2.57-6.19-3.08-9.73-1.11C397.83,294.31,399.35,295.56,401.18,296.29z M398.71,251.55
				c0.37-1.33,0.76-2.67,1.19-4.16c-1.29-0.39-1.58,0.48-1.99,1.05c-4.38,5.99-8.75,11.99-13.11,17.99
				c-0.31,0.431-0.55,0.91-1.01,1.66c2.17-0.28,4.01-0.51,5.85-0.77c2.141-0.301,4.28-0.65,6.431-0.95
				c0.85-0.13,1.1-0.74,1.279-1.45c0.561-2.09,1.16-4.17,1.66-6.28c0.13-0.569,0.141-1.319-0.13-1.8
				C397.9,255.08,398.21,253.33,398.71,251.55z M395.74,149.21c1.1-0.98,1.58-2.27,1.1-3.59c-0.479-1.34-1.57-2.36-3.1-2.49
				c-0.62-0.05-1.431,0.13-1.891,0.51c-2.31,1.92-4.609,3.88-6.77,5.96c-1.17,1.14-2.35,2.45-1.83,4.52
				c1.83-0.41,3.51-1.03,5.23-1.14C391.51,152.78,393.64,151.07,395.74,149.21z M391.21,154.99c-2.2-0.59-4.1-0.4-6.34,0.53
				c-2.12,0.88-2.71,1.97-2.32,4.68C385.27,158.19,388.65,157.5,391.21,154.99z M326.9,198.25c1.01-1.37,1.39-2.8,1.39-4.44
				c-2.66-0.82-5.2-0.59-7.73,0.01c-0.399,2.01-0.39,2.13-2.43,2.65c-2.33,0.59-4,1.84-5.05,4.03c-0.66,1.39-1.5,2.7-2.35,3.99
				c-0.37,0.55-0.91,1.07-1.48,1.4c-5.83,3.36-11.69,6.68-17.54,10.02c-0.47,0.27-0.91,0.6-1.35,0.89
				c0.199,1.02,0.62,1.48,1.62,1.12c1.71-0.63,3.449-1.17,5.14-1.86c1.95-0.81,3.95-1.41,6.05-1.64c2.79-0.31,5.6-0.51,8.36-0.99
				c3.05-0.52,5.92-1.4,7.79-4.31C321.71,205.4,324.29,201.81,326.9,198.25z M317.28,250.91c2.35-2.35,3.58-5.78,3.479-9.66
				c-2.08,0.31-2.99,1.93-4.21,3.1c-0.17,0.16-0.26,0.52-0.229,0.76C316.61,247,316.94,248.88,317.28,250.91z M311.86,242.61
				c0.6-1.28,0.97-2.35,0.109-3.43c-1.7,0.35-2.17,0.65-3.97,2.53C309.36,242.03,310.6,242.32,311.86,242.61z M309.78,221.79
				c1.029-1.64,2.109-3.26,3.17-4.9c-2.38,0.15-4.601,0.25-6.561,1.52c-0.71,0.45-1.72,0.48-2.6,0.6c-0.97,0.14-2.06-0.08-2.9,0.28
				c-1.64,0.72-3.279,1.01-5.14,0.63c-0.08,0.69-0.13,1.2-0.2,1.79c1.4,0.15,2.641,0.32,3.88,0.42c2.721,0.2,5.431,0.39,8.15,0.54
				C308.42,222.72,309.25,222.65,309.78,221.79z M217.18,339.87c0.68-1.03,1.6-2.25,1.55-3.34c-0.14-3.03-0.72-6.03-1.16-9.3
				c-2.21,1.68-4.57,1.779-7.26,1.699c0.31,0.96,0.47,1.69,0.78,2.351c0.81,1.729,1.35,3.51,1.39,5.43c0.05,2.1,1.05,3.83,2.21,5.84
				C215.69,341.5,216.58,340.78,217.18,339.87z M200.71,277.89c2.05-0.239,3.47-3.239,2.36-5.01c-1-1.59-2.12-3.12-3.11-4.72
				c-0.61-1-1.39-1.49-2.74-1.34c-0.4,0.77-0.93,1.6-1.29,2.489c-1.09,2.71-2.54,5.11-5.31,6.431c-0.15,0.069-0.23,0.31-0.34,0.46
				c1.36,1.5,3.5,2.29,5.86,2.13C197.67,278.22,199.19,278.06,200.71,277.89z M169.32,422.55c0.94-1.319,0.82-1.66-0.76-2.81
				c-1.98,1.62-3.25,3.71-4.18,6.069c-0.39,1.021,0,1.641,0.76,2.391C166.6,426.23,168,424.42,169.32,422.55z M159.59,435.12
				c2.25,0.11,2.93-0.67,2.85-3.49C160.67,431.72,159.82,432.81,159.59,435.12z"/>
		</g>
		<g>
		</g>
	</g>
</g>
</svg>
